<svg xmlns="http://www.w3.org/2000/svg" width="64" height="64" viewBox="0 0 64 64" fill="none">
  <rect x="4" y="6" width="56" height="52" rx="12" fill="#FEE2E2"/>
  <rect x="9" y="11" width="46" height="30" rx="8" fill="#FCA5A5"/>
  <path d="M18 26h6v2h-4v4h4v2h-6v-8zm10 0h4c1.5 0 2.5 1 2.5 2.5v3c0 1.5-1 2.5-2.5 2.5h-4v-8zm4 6v-3h-2v3h2zm6-6h6l-2 8h-2l2-6h-2v6h-2v-8z" fill="#991B1B"/>
  <rect x="13" y="44" width="38" height="10" rx="5" fill="#DC2626"/>
  <text x="32" y="51" text-anchor="middle" font-size="8" font-family="Arial, sans-serif" font-weight="700" fill="white">PDF</text>
</svg>
